<svg xmlns="http://www.w3.org/2000/svg" viewBox="0 0 41 42" width="41" height="42">
	<style>
		tspan { white-space:pre }
		.shp0 { fill: #000000 } 
	</style>
	<g id="Latest Project">
		<g id="Items">
			<path id="Icon-Basket" fill-rule="evenodd" class="shp0" d="M1.17 14.57C1.17 12.67 2.72 11.13 4.62 11.13L8.5 11.13C8.56 10.91 8.65 10.69 8.77 10.49L12.9 3.33C13.66 2.02 15.35 1.56 16.66 2.32C17.98 3.09 18.43 4.77 17.67 6.09L14.76 11.13L26.14 11.13L23.23 6.09C22.47 4.77 22.92 3.09 24.23 2.32C25.55 1.56 27.23 2.02 27.99 3.33L32.12 10.49C32.24 10.69 32.33 10.91 32.4 11.13L36.28 11.13C38.18 11.13 39.72 12.67 39.72 14.57C39.72 16.47 38.18 18.01 36.28 18.01L4.62 18.01C2.72 18.01 1.17 16.47 1.17 14.57ZM35.7 40.04L5.2 40.04L4.01 19.39L36.89 19.39L35.7 40.04ZM19.07 26.27L19.07 34.53C19.07 35.29 19.69 35.91 20.45 35.91C21.21 35.91 21.82 35.29 21.82 34.53L21.82 26.27C21.82 25.51 21.21 24.9 20.45 24.9C19.69 24.9 19.07 25.51 19.07 26.27ZM27.33 26.27L27.33 34.53C27.33 35.29 27.95 35.91 28.71 35.91C29.47 35.91 30.08 35.29 30.08 34.53L30.08 26.27C30.08 25.51 29.47 24.9 28.71 24.9C27.95 24.9 27.33 25.51 27.33 26.27ZM10.81 26.27L10.81 34.53C10.81 35.29 11.43 35.91 12.19 35.91C12.95 35.91 13.56 35.29 13.56 34.53L13.56 26.27C13.56 25.51 12.95 24.9 12.19 24.9C11.43 24.9 10.81 25.51 10.81 26.27Z" />
		</g>
	</g>
</svg>