<svg xmlns="http://www.w3.org/2000/svg" viewBox="0 0 43 36" width="43" height="36">
	<style>
		tspan { white-space:pre }
		.shp0 { fill: #000000 } 
	</style>
	<g id="Latest Project">
		<g id="Items">
			<path id="Icon-Laptop" fill-rule="evenodd" class="shp0" d="M7.91 1.18L34.82 1.18C37.05 1.18 38.86 2.99 38.86 5.22L38.86 22.71C38.86 23.18 38.78 23.63 38.63 24.05L38.86 24.05L38.86 26.75L34.82 26.75L34.82 5.22L7.91 5.22L7.91 26.75L3.88 26.75L3.88 24.05L4.11 24.05C3.96 23.63 3.88 23.18 3.88 22.71L3.88 5.22C3.88 2.99 5.68 1.18 7.91 1.18ZM3.88 29.44L38.86 29.44C40.34 29.44 41.55 30.64 41.55 32.13C41.55 33.61 39 34.82 37.51 34.82L5.22 34.82C3.74 34.82 1.19 33.61 1.19 32.13C1.19 30.64 2.39 29.44 3.88 29.44ZM15.99 32.8C15.99 33.17 16.59 33.47 17.33 33.47L25.4 33.47C26.15 33.47 26.75 33.17 26.75 32.8C26.75 32.43 26.15 32.13 25.4 32.13L17.33 32.13C16.59 32.13 15.99 32.43 15.99 32.8ZM12.33 16.97L14.23 15.06C14.75 14.54 15.6 14.54 16.12 15.06L18.61 17.56L26.61 9.52C27.13 8.99 27.98 8.99 28.5 9.52L30.4 11.42C30.92 11.95 30.92 12.8 30.4 13.33L19.98 23.79C19.53 24.24 18.84 24.3 18.33 23.98C17.89 24.09 17.41 23.97 17.07 23.63L12.33 18.87C11.81 18.34 11.81 17.49 12.33 16.97Z" />
		</g>
	</g>
</svg>