<svg xmlns="http://www.w3.org/2000/svg" viewBox="0 0 22 33" width="22" height="33">
	<style>
		tspan { white-space:pre }
		.shp0 { fill: #ececec } 
	</style>
	<g id="Top Footer">
		<g id="Left Column">
			<path id="iPhone potrait" fill-rule="evenodd" class="shp0" d="M3.72 1.82L18.65 1.82C19.68 1.82 20.52 2.66 20.52 3.69L20.52 29.81C20.52 30.84 19.68 31.68 18.65 31.68L3.72 31.68C2.69 31.68 1.86 30.84 1.86 29.81L1.86 3.69C1.86 2.66 2.69 1.82 3.72 1.82ZM6.52 4.16C6.52 4.41 6.73 4.62 6.99 4.62L15.38 4.62C15.64 4.62 15.85 4.41 15.85 4.16C15.85 3.9 15.64 3.69 15.38 3.69L6.99 3.69C6.73 3.69 6.52 3.9 6.52 4.16ZM3.72 27.95L18.65 27.95L18.65 6.49L3.72 6.49L3.72 27.95ZM10.25 29.81C10.25 30.33 10.67 30.74 11.19 30.74C11.7 30.74 12.12 30.33 12.12 29.81C12.12 29.3 11.7 28.88 11.19 28.88C10.67 28.88 10.25 29.3 10.25 29.81Z" />
		</g>
	</g>
</svg>