<svg xmlns="http://www.w3.org/2000/svg" viewBox="0 0 28 23" width="28" height="23">
	<style>
		tspan { white-space:pre }
		.shp0 { fill: #ececec } 
	</style>
	<g id="Top Footer">
		<g id="Middle Column">
			<path id="News Icon" fill-rule="evenodd" class="shp0" d="M3.74 1.23L23.71 1.23C25.09 1.23 26.21 2.35 26.21 3.73L26.21 18.71C26.21 20.09 25.09 21.21 23.71 21.21L3.74 21.21C2.36 21.21 1.24 20.09 1.24 18.71L1.24 3.73C1.24 2.35 2.36 1.23 3.74 1.23ZM15.39 11.22C15.39 11.68 15.76 12.05 16.22 12.05L23.71 12.05C24.17 12.05 24.55 11.68 24.55 11.22C24.55 10.76 24.17 10.39 23.71 10.39L16.22 10.39C15.76 10.39 15.39 10.76 15.39 11.22ZM15.39 7.89C15.39 8.35 15.76 8.72 16.22 8.72L23.71 8.72C24.17 8.72 24.55 8.35 24.55 7.89C24.55 7.43 24.17 7.06 23.71 7.06L16.22 7.06C15.76 7.06 15.39 7.43 15.39 7.89ZM15.39 14.55C15.39 15.01 15.76 15.38 16.22 15.38L23.71 15.38C24.17 15.38 24.55 15.01 24.55 14.55C24.55 14.09 24.17 13.72 23.71 13.72L16.22 13.72C15.76 13.72 15.39 14.09 15.39 14.55ZM2.91 7.06L2.91 15.38C2.91 15.84 3.28 16.21 3.74 16.21L12.06 16.21C12.52 16.21 12.89 15.84 12.89 15.38L12.89 7.06C12.89 6.6 12.52 6.22 12.06 6.22L3.74 6.22C3.28 6.22 2.91 6.6 2.91 7.06Z" />
		</g>
	</g>
</svg>