<svg xmlns="http://www.w3.org/2000/svg" viewBox="0 0 28 25" width="28" height="25">
	<style>
		tspan { white-space:pre }
		.shp0 { fill: #ececec } 
	</style>
	<g id="Top Footer">
		<g id="Middle Column">
			<path id="Photo Icon" fill-rule="evenodd" class="shp0" d="M2.58 1.27L24.63 1.27C25.5 1.27 26.21 1.97 26.21 2.84L26.21 21.74C26.21 22.61 25.5 23.32 24.63 23.32L2.58 23.32C1.71 23.32 1 22.61 1 21.74L1 2.84C1 1.97 1.71 1.27 2.58 1.27ZM3.37 5.2L3.37 19.38C3.37 20.25 4.07 20.96 4.94 20.96L22.27 20.96C23.14 20.96 23.85 20.25 23.85 19.38L23.85 5.2C23.85 4.33 23.14 3.63 22.27 3.63L4.94 3.63C4.07 3.63 3.37 4.33 3.37 5.2ZM8.49 5.2C10.01 5.2 11.24 6.44 11.24 7.96C11.24 9.48 10.01 10.72 8.49 10.72C6.96 10.72 5.73 9.48 5.73 7.96C5.73 6.44 6.96 5.2 8.49 5.2ZM4.15 19.38L8.88 13.08L12.03 17.02L12.82 17.02L18.33 5.99L23.06 19.38L4.15 19.38Z" />
		</g>
	</g>
</svg>