<svg xmlns="http://www.w3.org/2000/svg" viewBox="0 0 27 21" width="27" height="21">
	<style>
		tspan { white-space:pre }
		.shp0 { fill: #ececec } 
	</style>
	<g id="Top Footer">
		<g id="Right Column">
			<path id="Twitter Icon" class="shp0" d="M2.17 14.33C2.17 14.33 5.33 15.78 6.65 15.78C6.65 15.78 9.15 16.46 10.81 14.3C10.81 14.3 11.21 13.7 10.66 13.42C10.66 13.42 5.27 11.83 5.65 10.9C5.65 10.9 5.63 10.37 6.32 10.49C6.32 10.49 7.1 9.72 6.72 9.48C6.72 9.48 6.12 8.7 6.6 8.65C6.6 8.65 7.82 8.98 8.27 9.1C8.27 9.1 8.58 8.99 8.3 8.78C8.01 8.56 7.5 8.14 7.6 8.04C7.6 8.04 7.8 7.58 8.56 7.91C8.56 7.91 8.8 7.86 8.58 7.62C8.58 7.62 8.03 7.24 8.34 6.93C8.34 6.93 9.22 6.3 11.44 9C11.44 9 11.85 9.55 11.9 9.02C11.9 9.02 13.51 2.16 16.12 1.7C16.12 1.7 16.95 1.87 17.12 1.61C17.12 1.61 17.84 1.32 18.08 1.56C18.08 1.56 18.32 1.92 18.61 1.7C18.61 1.7 19.64 1.3 19.33 1.96C19.33 1.96 18.27 2.91 17.91 2.94C17.55 2.96 17.62 3.3 17.93 3.34C17.93 3.34 22.31 3.73 22.31 6.93C22.31 6.93 22.56 7.69 23.37 6.9C23.37 6.9 24.6 6.12 24.91 6.08C24.91 6.08 25.25 5.87 25.2 6.37C25.2 6.37 24.32 7.9 23.41 8.33C23.41 8.33 22.86 9.03 23.65 8.88C23.65 8.88 24.41 8.72 24.77 8.51C24.77 8.51 25.7 8.05 25.27 8.87C25.27 8.87 23.31 10.14 22.88 10.14C22.88 10.14 22.59 10.21 22.59 10.48C22.59 10.48 22.33 18.84 11.38 18.84C11.38 18.84 5.9 19.16 2.31 14.95C2.31 14.95 1.62 14.21 2.17 14.33Z" />
		</g>
	</g>
</svg>